<svg xmlns="http://www.w3.org/2000/svg" width="320.828" height="438.748" viewBox="0 0 320.828 438.748"><g transform="translate(-35.367 -32.209)"><g transform="matrix(0.966, 0.259, -0.259, 0.966, 206.056, 55.982)"><path d="M0,76.131,8.62,35.969C3.813,30.328.559,23.415,1.1,15.67,2.67-6.648,33.75-1.739,39.8,9.526s5.328,39.837-2.486,41.85c-3.116.8-9.755-1.164-16.511-5.234L25.04,76.131Z" transform="translate(0 0)" fill="#a17a62"/></g><path d="M54.634,56.316c-3.841,0-7.4-2.454-10.028-6.909A31.782,31.782,0,0,1,40.69,33.716c0-.4.008-.814.024-1.226a63.692,63.692,0,0,0-7.887,6.869,61.816,61.816,0,0,1-8.534,7.34,18.272,18.272,0,0,1-10.249,3.359c-3.881,0-7.492-2-10.168-5.622A20.475,20.475,0,0,1,0,32.514a16.361,16.361,0,0,1,.794-5.159,12.416,12.416,0,0,1,2.493-4.389,11.727,11.727,0,0,1,4.361-3.051,16.84,16.84,0,0,1,6.4-1.143C28.792,18.772,36,20.9,42.292,24.1a20.282,20.282,0,0,1,5.413-8.436A8.393,8.393,0,0,1,50.193,13.9a11.667,11.667,0,0,1,2.081-.892A52.488,52.488,0,0,1,67.6,10.433c.82-.028,1.641-.043,2.44-.043.3,0,.61,0,.909.006a10.433,10.433,0,1,1,11,10.447,52.5,52.5,0,0,1-11.671,1.983,21.831,21.831,0,0,1,.672,5.595,31.558,31.558,0,0,1-.582,5.818,4.861,4.861,0,0,0-3.592-1.909,6.162,6.162,0,0,0-4.514,1.92,6.364,6.364,0,0,0-1.746,4.337,8.043,8.043,0,0,0,1.612,5.087,5.744,5.744,0,0,0,4.2,2.2,28,28,0,0,1-5.4,7.456C58.8,55.311,56.685,56.316,54.634,56.316Z" transform="matrix(0.966, 0.259, -0.259, 0.966, 161.659, 32.209)" fill="#262626"/><path d="M0,0,77.526,129.555l58.122,109.528h12.519L50.783,0Z" transform="translate(169.633 221.707)" fill="#a17862"/><g transform="translate(294.833 429.242)"><path d="M4.667,5.235A2.087,2.087,0,0,0,1.991,6.641L0,13.654a66.97,66.97,0,0,0,.94,8.233H59.786s2.294-7.58-2.648-8.184-8.211-1.091-8.211-1.091L21.576.423a1.043,1.043,0,0,0-1.389.555L18.429,5.241s-4.575,2.134-7.435,2.134Z" transform="translate(1.043 19.829)" fill="#262626"/></g><path d="M132.4,221.544l24.143-7.3s-15.866-47.412-38.893-104.35S68.188,0,68.188,0H0S29.388,66.986,62.31,121.731A930.251,930.251,0,0,0,132.4,221.544Z" transform="translate(156.742 221.707)" fill="#960074"/><path d="M118.655,0c-7.317,45.526-21.43,103.692-22.761,105.487Q94.562,107.282,0,137.606l2.7,11.035q112.765-16.263,118.835-25.235c6.07-8.972,36.379-79.851,48.118-123.406Z" transform="translate(45.883 221.707)" fill="#a17862"/><path d="M0,128.067,4.763,145.84q84.341,7.394,103.356-10.685T151.46,0H86.439Q71.026,95.868,69.2,99.893T0,128.067Z" transform="translate(68.043 221.707)" fill="#b10089"/><g transform="matrix(0.174, 0.985, -0.985, 0.174, 74.586, 347.365)"><path d="M4.474,5.033A2,2,0,0,0,1.908,6.381L0,13.106A64.242,64.242,0,0,0,.9,21H57.3s2.2-7.268-2.538-7.848-7.87-1.047-7.87-1.047L20.68.419a1,1,0,0,0-1.332.532L17.663,5.039s-4.385,2.046-7.127,2.046Z" transform="translate(1 19)" fill="#262626"/></g><path d="M1.227,104.545c-1.116-.688-2.338-3.28.615-5.3C9.2,94.195,19.8,85.365,21.236,82.459,24.166,76.514,38.807,0,38.807,0L60.7.082S35.688,81.133,34.145,84.956c-2.314,5.735,2.583,14.468,4.676,19.162-3.3,1.477-4.834-.409-6.512-2.294-1.789-2.01-3.745-4.019-8.184-1.954-5.68,2.643-10.377,6.838-15.975,6.838A12.989,12.989,0,0,1,1.227,104.545ZM197.379,58.658,167.922,41.29l9.409-16.279,28.328,27.635a85.884,85.884,0,0,1,20.261,11.647c1.184,1.427,2.472,4.164-3.1,2.939s-11.484-2.262-12.532-.45,2.038,4.587.1,6.958a.732.732,0,0,1-.593.283Q207.134,74.024,197.379,58.658Z" transform="translate(97.163 190.45)" fill="#a17d5d"/><path d="M0,2.231,8.485,0c17.767,46.781,90.35,73.379,96.2,90.936,2.145,6.439-2.3,10.177.323,11.966l-10.48,9.176c-2.09-2.046-5.782,2.354-14.479.263S4.969,59.03,0,2.231Z" transform="matrix(0.996, 0.087, -0.087, 0.996, 202.889, 126.109)" fill="#083b37"/><path d="M4.4,149.714c1-5.517-5.936-8.2-4.077-20.526C10.829,59.524,51.162,22.1,67.436,9.579l.41-5.858A4,4,0,0,1,72.115.01L99.049,1.894a4,4,0,0,1,3.712,4.269l-.72,10.293c-1,63.755,35.855,80.02,27.646,105.594-6.779,21.119-71.66,43.821-82.887,23.119-4.5-8.3-6.566-18.315-6.833-29.208-2.83,8.225-5.2,15.618-6.815,21.538-2.88,10.54-14.045,12.216-14.045,16.276Z" transform="translate(115.201 118.269)" fill="#0c544f"/></g></svg>